G04 #@! TF.GenerationSoftware,KiCad,Pcbnew,(5.1.9-0-10_14)*
G04 #@! TF.CreationDate,2021-03-15T15:37:22+01:00*
G04 #@! TF.ProjectId,Atari800XL,41746172-6938-4303-9058-4c2e6b696361,rev?*
G04 #@! TF.SameCoordinates,Original*
G04 #@! TF.FileFunction,Profile,NP*
%FSLAX46Y46*%
G04 Gerber Fmt 4.6, Leading zero omitted, Abs format (unit mm)*
G04 Created by KiCad (PCBNEW (5.1.9-0-10_14)) date 2021-03-15 15:37:22*
%MOMM*%
%LPD*%
G01*
G04 APERTURE LIST*
G04 #@! TA.AperFunction,Profile*
%ADD10C,0.050000*%
G04 #@! TD*
G04 APERTURE END LIST*
D10*
X291600000Y-28700000D02*
G75*
G02*
X292900000Y-30000000I0J-1300000D01*
G01*
X227500000Y-30000000D02*
G75*
G02*
X228800000Y-28700000I1300000J0D01*
G01*
X385000000Y-150600000D02*
X382000000Y-150600000D01*
X382000000Y-144200000D02*
X385000000Y-144200000D01*
X385000000Y-144200000D02*
X385000000Y-150600000D01*
X382000000Y-150600000D02*
X382000000Y-144200000D01*
X382000000Y-110200000D02*
X382000000Y-103800000D01*
X385000000Y-110200000D02*
X382000000Y-110200000D01*
X385000000Y-103800000D02*
X385000000Y-110200000D01*
X382000000Y-103800000D02*
X385000000Y-103800000D01*
X244100001Y-82500000D02*
G75*
G03*
X244100001Y-82500000I-1802776J0D01*
G01*
X250500000Y-79500000D02*
X250500000Y-88500000D01*
X246700000Y-79500000D02*
X250500000Y-79500000D01*
X250500000Y-88500000D02*
X246700000Y-88500000D01*
X246700000Y-88500000D02*
X246700000Y-79500000D01*
X184000000Y-82500000D02*
G75*
G03*
X184000000Y-82500000I-1800000J0D01*
G01*
X174200000Y-88500000D02*
X174200000Y-79500000D01*
X178000000Y-88500000D02*
X174200000Y-88500000D01*
X178000000Y-79500000D02*
X178000000Y-88500000D01*
X174200000Y-79500000D02*
X178000000Y-79500000D01*
X388800000Y-127200000D02*
G75*
G03*
X388800000Y-127200000I-2300000J0D01*
G01*
X293405877Y-226600000D02*
G75*
G03*
X293405877Y-226600000I-3405877J0D01*
G01*
X134405877Y-226600000D02*
G75*
G03*
X134405877Y-226600000I-3405877J0D01*
G01*
X342800000Y-148700000D02*
G75*
G03*
X342800000Y-148700000I-2300000J0D01*
G01*
X328300000Y-61000000D02*
G75*
G03*
X328300000Y-61000000I-2300000J0D01*
G01*
X338800000Y-61700000D02*
G75*
G03*
X338800000Y-61700000I-2300000J0D01*
G01*
X305600000Y-44200000D02*
G75*
G03*
X305600000Y-44200000I-2300000J0D01*
G01*
X219400000Y-44200000D02*
G75*
G03*
X219400000Y-44200000I-2300000J0D01*
G01*
X164100000Y-61100000D02*
G75*
G03*
X164100000Y-61100000I-2300000J0D01*
G01*
X93800000Y-62100000D02*
G75*
G03*
X93800000Y-62100000I-2300000J0D01*
G01*
X111100000Y-66400000D02*
G75*
G03*
X111100000Y-66400000I-2300000J0D01*
G01*
X39300000Y-66400000D02*
G75*
G03*
X39300000Y-66400000I-2300000J0D01*
G01*
X36800000Y-139900000D02*
G75*
G03*
X36800000Y-139900000I-2300000J0D01*
G01*
X328300000Y-228400000D02*
G75*
G03*
X328300000Y-228400000I-2300000J0D01*
G01*
X226300000Y-228400000D02*
G75*
G03*
X226300000Y-228400000I-2300000J0D01*
G01*
X42800000Y-228400000D02*
G75*
G03*
X42800000Y-228400000I-2300000J0D01*
G01*
X308300000Y-31700000D02*
X308300000Y-39200000D01*
X292900000Y-30000000D02*
X292900000Y-39200000D01*
X308300000Y-31700000D02*
X386500000Y-31700000D01*
X227500000Y-39200000D02*
X227500000Y-30000000D01*
X292900000Y-39200000D02*
X308300000Y-39200000D01*
X212100000Y-31700000D02*
X212100000Y-39200000D01*
X228800000Y-28700000D02*
X291600000Y-28700000D01*
X212100000Y-31700000D02*
X212100000Y-31700000D01*
X212100000Y-31700000D02*
X212100000Y-31700000D01*
X212100000Y-39200000D02*
X227500000Y-39200000D01*
X35500000Y-218700000D02*
X30500000Y-218700000D01*
X35500000Y-232200000D02*
X35500000Y-218700000D01*
X386500000Y-218700000D02*
X391500000Y-218700000D01*
X386500000Y-232200000D02*
X386500000Y-218700000D01*
X386500000Y-43300000D02*
X391500000Y-43300000D01*
X386500000Y-31700000D02*
X386500000Y-43300000D01*
X35500000Y-43300000D02*
X30500000Y-43300000D01*
X35500000Y-31700000D02*
X35500000Y-43300000D01*
X30500000Y-218700000D02*
X30500000Y-43300000D01*
X386500000Y-232200000D02*
X35500000Y-232200000D01*
X391500000Y-43300000D02*
X391500000Y-218700000D01*
X35500000Y-31700000D02*
X212100000Y-31700000D01*
M02*
