M48
INCH,TZ
T1C0.0157
T2C0.0315
T3C0.0394
T4C0.0472
T5C0.0512
T6C0.0551
T7C0.0591
T8C0.0728
T9C0.0787
T10C0.1260
T11C0.1378
%
G90
G05
T1
X13504Y-84606
X14173Y-34331
X14173Y-38268
X14173Y-42205
X14173Y-46142
X14173Y-50118
X14173Y-63268
X14173Y-67205
X14173Y-71142
X14173Y-75079
X14173Y-79055
X16693Y-71378
X16719Y-42494
X16732Y-36772
X17205Y-26378
X18504Y-71378
X18701Y-29331
X21969Y-24843
X21969Y-25748
X21969Y-26654
X23346Y-24843
X23346Y-25748
X23346Y-26654
X24724Y-24843
X24724Y-25709
X24724Y-26654
X25827Y-52283
X26102Y-26654
X26142Y-24882
X26142Y-25748
X27205Y-84409
X27270Y-70656
X27953Y-75433
X29252Y-79567
X29252Y-80197
X29606Y-78898
X29685Y-80591
X29724Y-89213
X31024Y-31181
X31417Y-78425
X32165Y-73465
X32559Y-68701
X33346Y-73150
X34020Y-62287
X34409Y-26378
X34551Y-72002
X35945Y-77795
X36299Y-74833
X37047Y-89252
X37362Y-77441
X38858Y-62283
X38858Y-68031
X40266Y-70180
X40551Y-74488
X40866Y-53780
X41427Y-74488
X41969Y-68031
X42598Y-73543
X42953Y-54016
X44055Y-49803
X44291Y-89213
X45197Y-42362
X45197Y-63228
X45236Y-64606
X46693Y-28937
X46693Y-36063
X47047Y-76457
X47244Y-29449
X48031Y-76929
X49370Y-85945
X51496Y-70079
X51811Y-70394
X52126Y-70709
X52205Y-74488
X52835Y-75394
X53543Y-71969
X54488Y-71654
X55551Y-71339
X55906Y-65669
X56535Y-65669
X56535Y-71024
X56535Y-83898
X57480Y-65354
X57520Y-74173
X58346Y-64094
X58858Y-64094
X58937Y-89213
X59567Y-65669
X60551Y-72283
X61535Y-72598
X62559Y-32087
X62559Y-72913
X62992Y-31693
X63031Y-73543
X63386Y-32480
X63465Y-73228
X63642Y-42776
X64055Y-75118
X64213Y-79252
X64567Y-79557
X64921Y-79961
X65039Y-75118
X65354Y-80315
X65551Y-67244
X66063Y-68819
X66181Y-89173
X66543Y-67882
X67047Y-69449
X67559Y-66929
X67992Y-70394
X68543Y-66299
X68740Y-86890
X69055Y-69764
X69528Y-70079
X70039Y-73858
X70551Y-70709
X71063Y-24291
X71535Y-68504
X71969Y-76693
X72047Y-69134
X73307Y-67559
X73307Y-69764
X73504Y-89213
X73661Y-68189
X73661Y-70079
X73740Y-85945
X74055Y-65984
X74055Y-66614
X74055Y-70394
X74449Y-70709
X74843Y-69449
X76928Y-76289
X76929Y-81772
X76943Y-75407
X77047Y-33543
X77047Y-34764
X77913Y-63228
X78268Y-24291
X78504Y-85079
X78543Y-37874
X79291Y-85236
X79449Y-67913
X79567Y-68465
X79921Y-83937
X79961Y-68858
X80472Y-86890
X80482Y-59370
X80482Y-64016
X80827Y-65000
X81850Y-48819
X81929Y-58386
X82598Y-31063
X82795Y-54961
X82835Y-85394
X82992Y-77520
X83189Y-35354
X83189Y-36339
X83228Y-34764
X83425Y-89213
X83583Y-30669
X84606Y-29921
X84803Y-40591
X85472Y-20354
X85472Y-24291
X85472Y-85945
X85591Y-29882
X86299Y-54252
X86457Y-74685
X87283Y-46850
X87283Y-60984
X87283Y-64646
X87480Y-74370
X88504Y-74055
X88898Y-26811
X88976Y-70915
X89488Y-73740
X89764Y-60039
X89803Y-37874
X89803Y-42906
X90360Y-38313
X90492Y-16319
X90512Y-73425
X90803Y-38764
X91496Y-73110
X91772Y-40709
X91772Y-63937
X91803Y-57551
X91811Y-52323
X91811Y-62874
X91811Y-64961
X91950Y-15700
X92244Y-66417
X92441Y-16319
X92480Y-72795
X92559Y-63622
X92677Y-47047
X92950Y-15700
X93307Y-48858
X93386Y-39173
X93386Y-63337
X93583Y-49213
X93898Y-65276
X94606Y-69764
X94646Y-52913
X94950Y-15700
X94961Y-55984
X94990Y-70079
X95197Y-40118
X95276Y-70551
X95276Y-53543
X95591Y-70906
X95903Y-70194
X95950Y-15700
X96220Y-57992
X96250Y-70482
X96535Y-63661
X96535Y-61575
X96850Y-61929
X96850Y-63976
X96850Y-89213
X96950Y-15700
X97165Y-62283
X97165Y-64291
X97480Y-64685
X97795Y-64970
X97950Y-15750
X98228Y-75433
X98463Y-16317
X99065Y-60511
X99262Y-60999
X99518Y-61542
X100000Y-33740
X100030Y-75276
X100443Y-16317
X100748Y-41496
X100950Y-15700
X101654Y-41969
X101732Y-41417
X101950Y-15700
X102244Y-63976
X102598Y-63583
X102795Y-40394
X102913Y-63189
X102913Y-74961
X102950Y-15700
X103228Y-60787
X103228Y-77490
X103524Y-60512
X103691Y-65323
X103950Y-15700
X104183Y-75271
X104213Y-54213
X104950Y-15700
X104961Y-72244
X104961Y-73661
X105118Y-44685
X105443Y-16309
X105512Y-89213
X105630Y-46339
X105669Y-44567
X105950Y-15700
X106102Y-46339
X106260Y-29528
X106260Y-30276
X106260Y-30984
X106260Y-31693
X106260Y-32402
X106260Y-44409
X106575Y-29173
X106575Y-29921
X106575Y-30630
X106575Y-31339
X106575Y-32047
X106575Y-32756
X106575Y-46339
X106663Y-54724
X106929Y-44173
X106950Y-15700
X106969Y-80866
X107402Y-44134
X107950Y-15700
X107953Y-80472
X108819Y-65276
X108950Y-15700
X108976Y-80079
X109055Y-58740
X109094Y-37205
X109409Y-60118
X109409Y-37598
X109724Y-37205
X109961Y-61378
X109961Y-79685
X110039Y-37598
X110354Y-37205
X110408Y-68647
X110551Y-66417
X110669Y-37598
X110945Y-79370
X110950Y-15700
X110984Y-37205
X111024Y-66063
X111299Y-37598
X111457Y-65669
X111457Y-68622
X111614Y-37205
X111732Y-41850
X111929Y-37598
X111929Y-42244
X111929Y-65315
X111950Y-15700
X112008Y-78898
X112087Y-85945
X112244Y-37205
X112441Y-64961
X112559Y-37598
X112874Y-37205
X112950Y-15700
X113031Y-78425
X113071Y-42638
X113201Y-37586
X113950Y-15700
X114921Y-16319
X114921Y-41890
X114921Y-61378
X115276Y-60079
X115630Y-42205
X115748Y-58740
X116260Y-57402
X116457Y-29882
X117323Y-40039
X117598Y-66890
X117835Y-40394
X117953Y-64016
X118268Y-39685
X118583Y-66969
X118701Y-40748
X118937Y-29961
X119016Y-86890
X119134Y-39370
X119449Y-44016
X119449Y-67047
X119488Y-76496
X119528Y-20354
X119528Y-24331
X119567Y-41575
X120079Y-39055
X120118Y-57402
X120354Y-67047
X120394Y-76496
X120787Y-38701
X121260Y-41142
X121575Y-67598
X121614Y-66772
X121693Y-89213
X121732Y-38386
X121732Y-58740
X121969Y-77087
X122441Y-60079
X122638Y-38071
X123465Y-37756
X123858Y-24331
X123898Y-33228
X123898Y-50000
X124016Y-85945
X124646Y-85354
X124882Y-33110
X125236Y-85354
X125906Y-33031
X129016Y-86890
X129409Y-44488
X130787Y-67638
X131575Y-73268
X132402Y-20866
X132992Y-53268
X140787Y-71496
X140906Y-74488
X148937Y-81102
X149331Y-83307
X149724Y-85512
X150118Y-87717
X150467Y-65674
X151260Y-70079
X151299Y-72283
X151305Y-74488
X151306Y-67874
T2
X12677Y-21102
X12677Y-22205
X12677Y-23465
X16693Y-72087
X17677Y-21102
X17677Y-22205
X17677Y-23465
X18465Y-36772
X18465Y-41772
X18465Y-46181
X18465Y-51181
X18465Y-55709
X18465Y-60709
X18465Y-77638
X18504Y-64764
X18504Y-69764
X18661Y-78819
X18661Y-83780
X19528Y-32205
X19528Y-37205
X19528Y-41772
X19528Y-46772
X19528Y-51220
X19528Y-56220
X19528Y-60709
X19528Y-65709
X19843Y-78819
X19843Y-83819
X20787Y-32394
X20787Y-35394
X20787Y-37157
X20787Y-40157
X20787Y-41921
X20787Y-44921
X20787Y-46685
X20787Y-49685
X20787Y-51449
X20787Y-54449
X20787Y-56213
X20787Y-59213
X20787Y-60976
X20787Y-63976
X20787Y-65740
X20787Y-68740
X20945Y-78819
X20945Y-83819
X21693Y-72087
X21787Y-32394
X21787Y-35394
X21787Y-37157
X21787Y-40157
X21787Y-41921
X21787Y-44921
X21787Y-46685
X21787Y-49685
X21787Y-51449
X21787Y-54449
X21787Y-56213
X21787Y-59213
X21787Y-60976
X21787Y-63976
X21787Y-65740
X21787Y-68740
X21811Y-31063
X21929Y-78819
X21929Y-83819
X22028Y-22657
X22787Y-32394
X22787Y-35394
X22787Y-37157
X22787Y-40157
X22787Y-41921
X22787Y-44921
X22787Y-46685
X22787Y-49685
X22787Y-51449
X22787Y-54449
X22787Y-56213
X22787Y-59213
X22787Y-60976
X22787Y-63976
X22787Y-65740
X22787Y-68740
X22992Y-78819
X22992Y-83819
X23189Y-21142
X23465Y-77638
X23563Y-14252
X23563Y-19252
X23787Y-32394
X23787Y-35394
X23787Y-37157
X23787Y-40157
X23787Y-41921
X23787Y-44921
X23787Y-46685
X23787Y-49685
X23787Y-51449
X23787Y-54449
X23787Y-56213
X23787Y-59213
X23787Y-60976
X23787Y-63976
X23787Y-65740
X23787Y-68740
X24173Y-78858
X24173Y-83819
X24646Y-72638
X24646Y-73858
X24685Y-75866
X24685Y-77866
X24783Y-14252
X24783Y-19252
X24787Y-32394
X24787Y-35394
X24787Y-37157
X24787Y-40157
X24787Y-41921
X24787Y-44921
X24787Y-46685
X24787Y-49685
X24787Y-51449
X24787Y-54449
X24787Y-56213
X24787Y-59213
X24787Y-60976
X24787Y-63976
X24787Y-65740
X24787Y-68740
X25354Y-78858
X25354Y-83819
X25685Y-76866
X25787Y-32394
X25787Y-35394
X25787Y-37157
X25787Y-40157
X25787Y-41921
X25787Y-44921
X25787Y-46685
X25787Y-49685
X25787Y-51449
X25787Y-54449
X25787Y-56213
X25787Y-59213
X25787Y-60976
X25787Y-63976
X25787Y-65740
X25787Y-68740
X26004Y-14252
X26004Y-19252
X26535Y-78819
X26535Y-83819
X26772Y-31063
X26787Y-32394
X26787Y-35394
X26787Y-37157
X26787Y-40157
X26787Y-41921
X26787Y-44921
X26787Y-46685
X26787Y-49685
X26787Y-51449
X26787Y-54449
X26787Y-56213
X26787Y-59213
X26787Y-60976
X26787Y-63976
X26787Y-65740
X26787Y-68740
X27028Y-22657
X27283Y-74961
X27283Y-79961
X27787Y-32394
X27787Y-35394
X27787Y-37157
X27787Y-40157
X27787Y-41921
X27787Y-44921
X27787Y-46685
X27787Y-49685
X27787Y-51449
X27787Y-54449
X27787Y-56213
X27787Y-59213
X27787Y-60976
X27787Y-63976
X27787Y-65740
X27787Y-68740
X28189Y-21142
X28346Y-22657
X28622Y-75772
X28622Y-81772
X29016Y-31299
X29016Y-35299
X29016Y-36220
X29016Y-40220
X29016Y-41142
X29016Y-45142
X29016Y-46063
X29016Y-50063
X29016Y-50984
X29016Y-54984
X29016Y-55906
X29016Y-59906
X29016Y-60827
X29016Y-64827
X29016Y-65748
X29016Y-69748
X29469Y-21142
X29606Y-72638
X29606Y-73858
X29622Y-75772
X29622Y-81772
X30512Y-44724
X30512Y-49724
X30622Y-75772
X30622Y-81772
X30984Y-62283
X30984Y-69409
X30984Y-74370
X31102Y-68031
X31299Y-51299
X31299Y-56260
X31622Y-75772
X31622Y-81772
X31693Y-44764
X31693Y-49724
X31850Y-58102
X31850Y-61102
X31850Y-63457
X31850Y-66457
X32165Y-69409
X32165Y-74370
X32480Y-51299
X32480Y-56260
X32622Y-75772
X32622Y-81772
X32850Y-58102
X32850Y-61102
X32850Y-63457
X32850Y-66457
X32874Y-44764
X32874Y-49764
X32913Y-32008
X32913Y-33150
X33346Y-22657
X33346Y-69409
X33346Y-74370
X33622Y-75772
X33622Y-81772
X33661Y-51299
X33661Y-56260
X33850Y-58102
X33850Y-61102
X33850Y-63457
X33850Y-66457
X34055Y-44764
X34055Y-49724
X34469Y-21142
X34528Y-69409
X34528Y-74370
X34622Y-75772
X34622Y-81772
X34843Y-51299
X34843Y-56260
X34850Y-58102
X34850Y-61102
X34850Y-63457
X34850Y-66457
X34862Y-45512
X35362Y-49370
X35551Y-46713
X35571Y-47894
X35622Y-75772
X35622Y-81772
X35709Y-69409
X35709Y-74370
X35850Y-58102
X35850Y-61102
X35850Y-63457
X35850Y-66457
X35945Y-43819
X35965Y-35394
X35965Y-37323
X35965Y-40512
X35965Y-42441
X35984Y-62283
X36024Y-51299
X36024Y-56260
X36102Y-68031
X36362Y-50370
X36622Y-75772
X36622Y-81772
X36835Y-35299
X36850Y-58102
X36850Y-61102
X36850Y-63457
X36850Y-66457
X36890Y-69409
X36890Y-74370
X37047Y-41220
X37047Y-42441
X37087Y-40039
X37205Y-37087
X37205Y-39087
X37205Y-51299
X37205Y-56260
X37362Y-49370
X37622Y-75772
X37622Y-81772
X37835Y-34299
X37835Y-36299
X37850Y-58102
X37850Y-61102
X37850Y-63457
X37850Y-66457
X37874Y-32008
X37874Y-33150
X38071Y-69409
X38071Y-74370
X38205Y-38087
X38386Y-51299
X38386Y-56260
X38622Y-75772
X38622Y-81772
X38850Y-58102
X38850Y-61102
X38850Y-63457
X38850Y-66457
X39252Y-19429
X39252Y-20965
X39252Y-22382
X39252Y-69409
X39252Y-74370
X39331Y-33110
X39331Y-38071
X39567Y-51299
X39567Y-56260
X39622Y-75772
X39622Y-81772
X39823Y-45512
X40512Y-46713
X40531Y-47894
X40551Y-33898
X40551Y-38858
X40622Y-75772
X40622Y-81772
X40709Y-45512
X41622Y-75772
X41622Y-81772
X41772Y-33898
X41772Y-38858
X41929Y-47504
X41929Y-48504
X41929Y-49504
X41929Y-50504
X41929Y-51504
X41929Y-52504
X41929Y-53504
X42047Y-40039
X42047Y-41220
X42047Y-42441
X42126Y-55472
X42126Y-60472
X42520Y-43819
X42622Y-75772
X42622Y-81772
X42992Y-33937
X42992Y-38898
X43583Y-55472
X43583Y-60472
X43622Y-75772
X43622Y-81772
X44252Y-19429
X44252Y-20965
X44252Y-22382
X44252Y-33937
X44252Y-38937
X44622Y-75772
X44622Y-81772
X44646Y-61181
X44646Y-62165
X44929Y-47504
X44929Y-48504
X44929Y-49504
X44929Y-50504
X44929Y-51504
X44929Y-52504
X44929Y-53504
X45276Y-55819
X45276Y-58819
X45394Y-18799
X45394Y-23799
X45622Y-75772
X45622Y-81772
X45709Y-45512
X46276Y-55819
X46276Y-58819
X46496Y-49449
X46496Y-54449
X46614Y-18780
X46614Y-23780
X46622Y-75772
X46622Y-81772
X46693Y-45157
X46693Y-46890
X46732Y-43543
X46732Y-60276
X46732Y-65236
X47276Y-55819
X47276Y-58819
X47559Y-49449
X47559Y-54409
X47622Y-75772
X47622Y-81772
X48031Y-60276
X48031Y-65236
X48276Y-55819
X48276Y-58819
X48701Y-49488
X48701Y-54449
X49276Y-55819
X49276Y-58819
X49331Y-60276
X49331Y-65236
X49370Y-77087
X49370Y-82047
X49843Y-49488
X49843Y-54449
X50276Y-55819
X50276Y-58819
X50591Y-77047
X50591Y-82008
X50630Y-60276
X50630Y-65236
X50984Y-49488
X50984Y-54449
X51276Y-55819
X51276Y-58819
X51654Y-45157
X51654Y-46890
X51693Y-43543
X51811Y-77047
X51811Y-82008
X51929Y-60276
X51929Y-65236
X52126Y-49488
X52126Y-54449
X52276Y-55819
X52276Y-58819
X52835Y-44134
X52835Y-46134
X52972Y-42756
X53228Y-60236
X53228Y-65236
X53268Y-49449
X53268Y-54409
X53543Y-75772
X53543Y-81772
X53835Y-45134
X54409Y-49488
X54409Y-54449
X54543Y-75772
X54543Y-81772
X54961Y-59567
X55039Y-61102
X55039Y-62283
X55472Y-52283
X55472Y-57244
X55543Y-75772
X55543Y-81772
X55961Y-58567
X56024Y-46850
X56024Y-50945
X56043Y-44114
X56043Y-48228
X56063Y-45472
X56063Y-49587
X56543Y-75772
X56543Y-81772
X56654Y-52283
X56654Y-57244
X56961Y-59567
X57543Y-75772
X57543Y-81772
X57835Y-52283
X57835Y-57244
X57972Y-42756
X58031Y-59567
X58543Y-75772
X58543Y-81772
X59016Y-52244
X59016Y-57205
X59031Y-58567
X59543Y-75772
X59543Y-81772
X60000Y-61102
X60000Y-62283
X60031Y-59567
X60197Y-52244
X60197Y-57205
X60543Y-75772
X60543Y-81772
X60984Y-50945
X61004Y-44114
X61024Y-45472
X61024Y-46850
X61024Y-49587
X61043Y-48228
X61102Y-59567
X61378Y-52283
X61378Y-57244
X61457Y-61024
X61457Y-62283
X61543Y-75772
X61543Y-81772
X62102Y-58567
X62543Y-75772
X62543Y-81772
X62559Y-52283
X62559Y-57244
X62638Y-40531
X62638Y-45531
X63102Y-59567
X63543Y-75772
X63543Y-81772
X63740Y-49488
X63740Y-54449
X64543Y-75772
X64543Y-81772
X64606Y-40512
X64606Y-45512
X64646Y-56693
X64646Y-57677
X64921Y-49488
X64921Y-54449
X65543Y-75772
X65543Y-81772
X65591Y-30591
X65591Y-35591
X66102Y-49488
X66102Y-54449
X66417Y-61024
X66457Y-62283
X66543Y-75772
X66543Y-81772
X67283Y-49488
X67283Y-54449
X67520Y-44449
X67520Y-45748
X67520Y-47047
X67520Y-48346
X67543Y-75772
X67543Y-81772
X67835Y-55866
X67835Y-60866
X68504Y-49488
X68504Y-54488
X68543Y-75772
X68543Y-81772
X68740Y-83504
X69543Y-75772
X69543Y-81772
X69567Y-54567
X69567Y-55906
X69606Y-57244
X69606Y-58583
X69606Y-59921
X70197Y-49756
X70197Y-52756
X70543Y-75772
X70543Y-81772
X71063Y-41220
X71063Y-42598
X71197Y-49756
X71197Y-52756
X71543Y-75772
X71543Y-81772
X72197Y-49756
X72197Y-52756
X72480Y-44449
X72480Y-45748
X72480Y-47047
X72520Y-48346
X72543Y-75772
X72543Y-81772
X73197Y-49756
X73197Y-52756
X73740Y-83504
X74528Y-54567
X74528Y-55906
X74567Y-57244
X74567Y-58583
X74606Y-59921
X74724Y-76496
X74724Y-81457
X75591Y-41220
X75591Y-42598
X75591Y-45787
X75591Y-47165
X76299Y-76457
X76299Y-81417
X77874Y-48189
X77913Y-59016
X78465Y-75772
X78465Y-81772
X78543Y-41299
X78543Y-46260
X78937Y-50244
X78937Y-51244
X78937Y-52244
X78937Y-53244
X78937Y-54244
X78937Y-55244
X78937Y-56244
X78937Y-57244
X78937Y-61008
X78937Y-62008
X78937Y-63008
X78937Y-64008
X78937Y-65008
X78937Y-66008
X78937Y-67008
X79465Y-75772
X79465Y-81772
X79921Y-41378
X79921Y-46339
X80465Y-75772
X80465Y-81772
X80472Y-83465
X81299Y-41339
X81299Y-46299
X81465Y-75772
X81465Y-81772
X81937Y-50244
X81937Y-51244
X81937Y-52244
X81937Y-53244
X81937Y-54244
X81937Y-55244
X81937Y-56244
X81937Y-57244
X81937Y-61008
X81937Y-62008
X81937Y-63008
X81937Y-64008
X81937Y-65008
X81937Y-66008
X81937Y-67008
X82047Y-68780
X82465Y-75772
X82465Y-81772
X82677Y-41417
X82677Y-46378
X82874Y-48189
X82913Y-59016
X83346Y-50748
X83346Y-55709
X83346Y-62047
X83346Y-67008
X83465Y-75772
X83465Y-81772
X84465Y-75772
X84465Y-81772
X84803Y-41693
X84803Y-42906
X84803Y-45906
X84803Y-47047
X84803Y-48181
X84803Y-51181
X84803Y-52323
X84803Y-53457
X84803Y-56457
X84803Y-57598
X84803Y-58732
X84803Y-61732
X84803Y-62874
X84803Y-64008
X84803Y-67008
X85465Y-75772
X85465Y-81772
X85472Y-83465
X85803Y-42906
X85803Y-45906
X85803Y-48181
X85803Y-51181
X85803Y-53457
X85803Y-56457
X85803Y-58732
X85803Y-61732
X85803Y-64008
X85803Y-67008
X86465Y-75772
X86465Y-81772
X86803Y-42906
X86803Y-45906
X86803Y-48181
X86803Y-51181
X86803Y-53457
X86803Y-56457
X86803Y-58732
X86803Y-61732
X86803Y-64008
X86803Y-67008
X87008Y-68780
X87465Y-75772
X87465Y-81772
X87803Y-42906
X87803Y-45906
X87803Y-48181
X87803Y-51181
X87803Y-53457
X87803Y-56457
X87803Y-58732
X87803Y-61732
X87803Y-64008
X87803Y-67008
X88465Y-75772
X88465Y-81772
X88803Y-42906
X88803Y-45906
X88803Y-48181
X88803Y-51181
X88803Y-53457
X88803Y-56457
X88803Y-58732
X88803Y-61732
X88803Y-64008
X88803Y-67008
X89055Y-68740
X89465Y-75772
X89465Y-81772
X89803Y-41693
X89803Y-42906
X89803Y-45906
X89803Y-47047
X89803Y-48181
X89803Y-51181
X89803Y-52323
X89803Y-53457
X89803Y-56457
X89803Y-57598
X89803Y-58732
X89803Y-61732
X89803Y-62874
X89803Y-64008
X89803Y-67008
X90465Y-75772
X90465Y-81772
X90803Y-42906
X90803Y-45906
X90803Y-48181
X90803Y-51181
X90803Y-53457
X90803Y-56457
X90803Y-58732
X90803Y-61732
X90803Y-64008
X90803Y-67008
X91465Y-75772
X91465Y-81772
X91803Y-42906
X91803Y-45906
X91803Y-48181
X91803Y-51181
X92465Y-75772
X92465Y-81772
X92803Y-42906
X92803Y-45906
X93031Y-60669
X93031Y-65630
X93465Y-75772
X93465Y-81772
X93803Y-42906
X93803Y-45906
X94016Y-68740
X94465Y-75772
X94465Y-81772
X95465Y-75772
X95465Y-81772
X96465Y-75772
X96465Y-81772
X97465Y-75772
X97465Y-81772
X104646Y-55591
X104646Y-60551
X104961Y-63094
X104961Y-69094
X104961Y-75772
X104961Y-81772
X105906Y-54724
X105906Y-56063
X105906Y-58740
X105906Y-60079
X105906Y-61378
X105945Y-57402
X105961Y-63094
X105961Y-69094
X105961Y-75772
X105961Y-81772
X106961Y-63094
X106961Y-69094
X106961Y-75772
X106961Y-81772
X107150Y-52071
X107961Y-63094
X107961Y-69094
X107961Y-75772
X107961Y-81772
X108150Y-51071
X108150Y-53071
X108961Y-63094
X108961Y-69094
X108961Y-75772
X108961Y-81772
X109961Y-63094
X109961Y-69094
X109961Y-75772
X109961Y-81772
X110079Y-48110
X110079Y-53110
X110866Y-54724
X110866Y-56063
X110866Y-58740
X110866Y-60079
X110866Y-61378
X110906Y-57402
X110961Y-63094
X110961Y-69094
X110961Y-75772
X110961Y-81772
X111496Y-48150
X111496Y-53110
X111961Y-63094
X111961Y-69094
X111961Y-75772
X111961Y-81772
X112087Y-83898
X112244Y-54724
X112283Y-56063
X112283Y-57402
X112283Y-58740
X112283Y-60079
X112283Y-61378
X112618Y-71496
X112717Y-48150
X112717Y-53110
X112961Y-63094
X112961Y-69094
X112961Y-75772
X112961Y-81772
X113937Y-48150
X113937Y-53110
X113961Y-63094
X113961Y-69094
X113961Y-75772
X113961Y-81772
X113969Y-37110
X113969Y-43110
X114961Y-63094
X114961Y-69094
X114961Y-75772
X114961Y-81772
X114969Y-37110
X114969Y-43110
X115157Y-48150
X115157Y-53110
X115961Y-63094
X115961Y-69094
X115961Y-75772
X115961Y-81772
X115969Y-29315
X115969Y-35315
X115969Y-37110
X115969Y-43110
X116378Y-48150
X116378Y-53110
X116654Y-70394
X116654Y-72638
X116961Y-63094
X116961Y-69094
X116961Y-75772
X116961Y-81772
X116969Y-29315
X116969Y-35315
X116969Y-37110
X116969Y-43110
X117047Y-83898
X117205Y-54724
X117244Y-56063
X117244Y-57402
X117244Y-58740
X117244Y-60079
X117244Y-61378
X117520Y-48150
X117520Y-53110
X117579Y-71496
X117961Y-63094
X117961Y-69094
X117961Y-75772
X117961Y-81772
X117969Y-29315
X117969Y-35315
X117969Y-37110
X117969Y-43110
X118524Y-61378
X118543Y-56063
X118543Y-57402
X118543Y-58740
X118543Y-60079
X118583Y-54724
X118740Y-48150
X118740Y-53110
X118780Y-74134
X118961Y-63094
X118961Y-69094
X118961Y-75772
X118961Y-81772
X118969Y-29315
X118969Y-35315
X118969Y-37110
X118969Y-43110
X119016Y-83425
X119961Y-48150
X119961Y-53110
X119961Y-63094
X119961Y-69094
X119961Y-75772
X119961Y-81772
X119969Y-29315
X119969Y-35315
X119969Y-37110
X119969Y-43110
X120961Y-63094
X120961Y-69094
X120961Y-75772
X120961Y-81772
X120969Y-29315
X120969Y-35315
X120969Y-37110
X120969Y-43110
X121102Y-48150
X121102Y-53110
X121654Y-70394
X121654Y-72638
X121961Y-63094
X121961Y-69094
X121961Y-75772
X121961Y-81772
X121969Y-29315
X121969Y-35315
X121969Y-37110
X121969Y-43110
X122323Y-48150
X122323Y-53110
X122961Y-63094
X122961Y-69094
X122961Y-75772
X122961Y-81772
X122969Y-29315
X122969Y-35315
X122969Y-37110
X122969Y-43110
X123386Y-70512
X123386Y-71496
X123484Y-61378
X123543Y-48150
X123543Y-53110
X123543Y-54724
X123543Y-56063
X123543Y-57402
X123543Y-58740
X123543Y-60079
X123740Y-74134
X123961Y-63094
X123961Y-69094
X123961Y-75772
X123961Y-81772
X123969Y-29315
X123969Y-35315
X123969Y-37110
X123969Y-43110
X124016Y-83425
X124803Y-50709
X124803Y-55669
X124969Y-29315
X124969Y-35315
X124969Y-37110
X124969Y-43110
X125748Y-73701
X125748Y-74843
X125748Y-75984
X125748Y-77126
X125748Y-78268
X125748Y-79409
X125748Y-80551
X125748Y-81732
X125748Y-82874
X125748Y-84016
X125787Y-58504
X125787Y-69094
X125787Y-70630
X125787Y-72402
X125969Y-29315
X125969Y-35315
X125969Y-37110
X125969Y-43110
X126488Y-49969
X126488Y-50969
X126488Y-51969
X126488Y-52969
X126488Y-53969
X126488Y-54969
X126488Y-55969
X126488Y-56969
X126488Y-60598
X126488Y-61598
X126488Y-62598
X126488Y-63598
X126488Y-64598
X126488Y-65598
X126488Y-66598
X126488Y-67598
X126969Y-29315
X126969Y-35315
X126969Y-37110
X126969Y-43110
X128622Y-36969
X128622Y-41969
X129055Y-29488
X129055Y-34488
X129488Y-49969
X129488Y-50969
X129488Y-51969
X129488Y-52969
X129488Y-53969
X129488Y-54969
X129488Y-55969
X129488Y-56969
X129488Y-60598
X129488Y-61598
X129488Y-62598
X129488Y-63598
X129488Y-64598
X129488Y-65598
X129488Y-66598
X129488Y-67598
X130709Y-73701
X130709Y-74843
X130709Y-75984
X130709Y-77126
X130709Y-78268
X130709Y-79409
X130709Y-80551
X130709Y-81732
X130709Y-82874
X130709Y-84016
X130787Y-58504
X130787Y-69094
X130787Y-70630
X130787Y-72402
X131024Y-27874
X131024Y-34449
X136614Y-76339
X136614Y-78465
X136614Y-80591
X136614Y-82717
X136614Y-84843
X136614Y-87205
X136614Y-88386
X136614Y-89567
X136732Y-68740
X136732Y-73701
X136890Y-30000
X136890Y-31378
X136890Y-32756
X136890Y-34134
X136890Y-35512
X136890Y-36890
X136890Y-38268
X136890Y-39646
X136890Y-41024
X136890Y-42402
X136890Y-43780
X136890Y-45157
X137008Y-23346
X137008Y-28346
X137126Y-48220
X137126Y-49220
X137126Y-50220
X137126Y-51220
X137126Y-52220
X137126Y-53220
X137126Y-54220
X137126Y-55220
X137126Y-59685
X137126Y-60685
X137126Y-61685
X137126Y-62685
X137126Y-63685
X137126Y-64685
X137126Y-65685
X137126Y-66685
X137953Y-68701
X137953Y-73701
X138228Y-23346
X138228Y-28346
X138346Y-79528
X138346Y-81654
X138346Y-83819
X138346Y-85906
X138386Y-75276
X138386Y-77402
X138898Y-48228
X138898Y-49228
X138898Y-50228
X138898Y-51228
X138898Y-52228
X138898Y-53228
X138898Y-54228
X138898Y-55228
X138898Y-59677
X138898Y-60677
X138898Y-61677
X138898Y-62677
X138898Y-63677
X138898Y-64677
X138898Y-65677
X138898Y-66677
X139173Y-68740
X139173Y-73701
X139488Y-23346
X139488Y-28346
X141575Y-87205
X141575Y-88386
X141575Y-89567
X141614Y-76339
X141614Y-78465
X141614Y-80591
X141614Y-82717
X141614Y-84843
X141890Y-30000
X141890Y-31378
X141890Y-32756
X141890Y-34134
X141890Y-35512
X141890Y-36890
X141890Y-38268
X141890Y-39646
X141890Y-41024
X141890Y-42402
X141890Y-43780
X141890Y-45157
X143346Y-79528
X143346Y-81654
X143346Y-83819
X143346Y-85906
X143386Y-75276
X143386Y-77402
X144528Y-81102
X144528Y-83307
X144528Y-85512
X144528Y-87717
X144528Y-89921
X144547Y-67795
X144547Y-72795
X144764Y-46870
X144764Y-53445
X144803Y-55020
X144803Y-59980
X144803Y-61240
X144803Y-66240
X145748Y-67795
X145748Y-72795
X145827Y-28386
X145827Y-34961
X146594Y-46870
X146594Y-53445
X146811Y-65669
X146811Y-67874
X146811Y-70079
X146811Y-72283
X146811Y-74488
X146811Y-76693
X146811Y-78898
X148110Y-28386
X148110Y-34961
X151102Y-81102
X151102Y-83307
X151102Y-85512
X151102Y-87717
X151102Y-89921
X153386Y-65669
X153386Y-67874
X153386Y-70079
X153386Y-72283
X153386Y-74488
X153386Y-76693
X153386Y-78898
T3
X14567Y-18465
X16535Y-18465
X76551Y-34071
X76591Y-32087
X77551Y-34071
X77591Y-32087
X78551Y-34071
X78591Y-32087
X79551Y-34071
X79591Y-32087
X80551Y-34071
X80591Y-32087
X81551Y-34071
X81591Y-32087
X82551Y-34071
X82591Y-32087
X83551Y-34071
X83591Y-32087
X84551Y-34071
X84591Y-32087
X85551Y-34071
X85591Y-32087
X86551Y-34071
X86591Y-32087
X87551Y-34071
X87591Y-32087
X88551Y-34071
X88591Y-32087
X89551Y-34071
X89591Y-32087
X90551Y-34071
X90591Y-32087
X141929Y-49913
X141929Y-50913
X141929Y-51913
X141929Y-52913
X141929Y-53913
X141929Y-54913
X141929Y-55913
X141929Y-56913
X141929Y-57913
X141929Y-58913
X141929Y-59913
X141929Y-60913
X141929Y-61913
X141929Y-62913
X141929Y-63913
X141929Y-64913
X141929Y-65913
X141929Y-66913
X141929Y-67913
X141929Y-68913
X141929Y-69913
X141929Y-70913
X141929Y-71913
X141929Y-72913
X147913Y-39945
X147913Y-41035
X147913Y-42126
X147913Y-43217
X147913Y-44307
X147913Y-55850
X147913Y-56941
X147913Y-58031
X147913Y-59122
X147913Y-60213
X149031Y-40490
X149031Y-41581
X149031Y-42671
X149031Y-43762
X149031Y-56396
X149031Y-57486
X149031Y-58577
X149031Y-59667
T4
X21752Y-13661
X21752Y-20748
X36083Y-13937
X36083Y-21024
X38012Y-17520
X45098Y-17520
X93898Y-52126
X93898Y-59213
X130748Y-36024
X130748Y-43110
T5
X19213Y-73701
X19213Y-75669
X23150Y-74685
T6
X133543Y-19961
X134232Y-18780
X134921Y-19961
X135610Y-18780
X136299Y-19961
X136988Y-18780
X137677Y-19961
X138366Y-18780
X139055Y-19961
X139744Y-18780
X140433Y-19961
X141122Y-18780
X141811Y-19961
T7
X27717Y-17402
X27717Y-19488
X28701Y-13661
X28701Y-18386
X30669Y-17402
X32638Y-13661
X32638Y-18386
X33622Y-17402
X33622Y-19488
X75591Y-17598
X76575Y-13661
X76575Y-18465
X78543Y-13661
X78543Y-17598
X80512Y-13661
X80512Y-18465
X81496Y-17598
T8
X17854Y-14094
X18858Y-19134
X18858Y-20630
X18858Y-22165
X19862Y-14094
X49862Y-40827
X52815Y-40827
X55768Y-40827
X58720Y-40827
T9
X40709Y-15394
X42598Y-15394
X44488Y-15394
T10
X151732Y-37205
X151732Y-47047
X151732Y-53110
X151732Y-62953
T11
X130000Y-15433
X145354Y-15433
T8
G00X48071Y-27707
M15
G01X48071Y-25994
M16
G05
G00X55148Y-14055
M15
G01X53435Y-14055
M16
G05
G00X55148Y-38268
M15
G01X53435Y-38268
M16
G05
G00X60512Y-27707
M15
G01X60512Y-25994
M16
G05
T0
M30
